<mxfile host="65bd71144e">
    <diagram id="IEWQwb1In5nq43S_M1mK" name="第 1 页">
        <mxGraphModel dx="342" dy="299" grid="1" gridSize="10" guides="1" tooltips="1" connect="1" arrows="1" fold="1" page="1" pageScale="1" pageWidth="827" pageHeight="1169" background="#ffffff" math="0" shadow="0">
            <root>
                <mxCell id="0"/>
                <mxCell id="1" parent="0"/>
                <mxCell id="2" value="" style="rhombus;whiteSpace=wrap;html=1;fillColor=#1ba1e2;fontColor=#ffffff;strokeColor=#006EAF;aspect=fixed;" parent="1" vertex="1">
                    <mxGeometry x="405" y="160" width="110" height="110" as="geometry"/>
                </mxCell>
                <mxCell id="3" value="W" style="text;html=1;strokeColor=none;fillColor=none;align=center;verticalAlign=middle;whiteSpace=wrap;rounded=0;fontFamily=Garamond;fontStyle=3;fontSize=58;fontColor=#FFFFFF;" parent="1" vertex="1">
                    <mxGeometry x="420" y="200" width="60" height="30" as="geometry"/>
                </mxCell>
                <mxCell id="7" value="&lt;font style=&quot;font-size: 36px;&quot;&gt;Web&amp;nbsp; 智寻&lt;/font&gt;" style="text;html=1;strokeColor=none;fillColor=none;align=center;verticalAlign=middle;whiteSpace=wrap;rounded=0;fontFamily=Georgia;fontSize=36;fontStyle=3;fontColor=#000000;labelBorderColor=none;labelBackgroundColor=none;horizontal=1;" parent="1" vertex="1">
                    <mxGeometry x="360" y="270" width="200" height="60" as="geometry"/>
                </mxCell>
                <mxCell id="8" value="INTELLIFIND" style="text;html=1;strokeColor=none;fillColor=none;align=center;verticalAlign=middle;whiteSpace=wrap;rounded=0;labelBackgroundColor=none;labelBorderColor=none;fontFamily=Garamond;fontSize=20;fontColor=#3e84c1;" parent="1" vertex="1">
                    <mxGeometry x="432.5" y="330" width="55" height="30" as="geometry"/>
                </mxCell>
            </root>
        </mxGraphModel>
    </diagram>
</mxfile>